<?xml version="1.0" standalone="no"?>
<!DOCTYPE svg PUBLIC "-//W3C//DTD SVG 20010904//EN"
 "http://www.w3.org/TR/2001/REC-SVG-20010904/DTD/svg10.dtd">
<svg version="1.0" xmlns="http://www.w3.org/2000/svg"
 width="451.000000pt" height="451.000000pt" viewBox="0 0 451.000000 451.000000"
 preserveAspectRatio="xMidYMid meet">
<metadata>
Created by potrace 1.11, written by Peter Selinger 2001-2013
</metadata>
<g transform="translate(0.000000,451.000000) scale(0.100000,-0.100000)"
fill="#000000" stroke="none">
<path d="M2090 4364 c0 -9 -9 -18 -20 -21 -11 -3 -20 -12 -20 -19 0 -20 29
-17 38 4 10 24 30 25 42 2 14 -26 36 -26 43 0 3 11 11 19 18 18 7 -2 15 5 17
15 4 20 -23 24 -35 4 -14 -24 -41 -27 -46 -6 -6 23 -37 26 -37 3z"/>
<path d="M2210 4336 c0 -14 29 -31 38 -21 6 6 -18 35 -29 35 -5 0 -9 -6 -9
-14z"/>
<path d="M2140 4239 c0 -18 2 -19 15 -9 15 12 12 30 -6 30 -5 0 -9 -10 -9 -21z"/>
<path d="M2225 4250 c-3 -5 -3 -15 1 -21 6 -11 23 6 24 24 0 10 -18 9 -25 -3z"/>
<path d="M1970 4195 c12 -15 30 -12 30 6 0 5 -10 9 -21 9 -18 0 -19 -2 -9 -15z"/>
<path d="M2186 4173 c-9 -9 -7 -33 3 -33 12 0 22 28 12 34 -5 3 -11 3 -15 -1z"/>
<path d="M2260 4162 c0 -14 11 -21 26 -15 8 3 11 9 8 14 -7 11 -34 12 -34 1z"/>
<path d="M2180 4076 c0 -22 17 -28 24 -10 9 22 8 24 -9 24 -8 0 -15 -6 -15
-14z"/>
<path d="M2265 4080 c-3 -5 -3 -15 1 -21 6 -11 23 6 24 24 0 10 -18 9 -25 -3z"/>
<path d="M1970 4043 c1 -18 18 -35 24 -24 4 6 4 16 1 21 -7 12 -25 13 -25 3z"/>
<path d="M2225 4000 c-4 -6 -3 -16 3 -22 13 -13 23 4 13 21 -7 10 -10 10 -16
1z"/>
<path d="M2265 3920 c-7 -12 2 -30 16 -30 12 0 12 27 0 35 -5 3 -12 1 -16 -5z"/>
<path d="M1967 3914 c-4 -4 -4 -10 -1 -15 6 -10 34 0 34 12 0 10 -24 12 -33 3z"/>
<path d="M2136 3911 c-3 -5 1 -11 9 -15 15 -6 29 7 18 18 -9 9 -21 8 -27 -3z"/>
<path d="M2221 3831 c-9 -6 -10 -11 -2 -15 13 -8 31 1 31 15 0 11 -11 11 -29
0z"/>
<path d="M2307 3820 c3 -11 9 -17 14 -14 14 8 10 34 -5 34 -9 0 -12 -7 -9 -20z"/>
<path d="M1971 3791 c-10 -7 -10 -10 -1 -16 6 -4 16 -3 22 3 13 13 -4 23 -21
13z"/>
<path d="M2260 3748 c0 -7 14 -26 30 -42 22 -22 33 -27 41 -19 8 8 4 16 -15
28 -14 10 -26 24 -26 31 0 8 -7 14 -15 14 -8 0 -15 -6 -15 -12z"/>
<path d="M2097 3714 c-8 -8 3 -34 14 -34 11 0 12 27 0 34 -4 3 -11 3 -14 0z"/>
<path d="M2226 3673 c-9 -9 -7 -33 3 -33 12 0 22 28 12 34 -5 3 -11 3 -15 -1z"/>
<path d="M1974 3626 c-8 -22 3 -33 18 -18 9 9 9 15 0 24 -9 9 -13 7 -18 -6z"/>
<path d="M2303 3623 c-7 -2 -13 -11 -13 -19 0 -8 -7 -14 -15 -14 -8 0 -15 -4
-15 -9 0 -19 91 -102 108 -99 12 2 6 13 -26 45 -47 47 -48 49 -27 69 25 26 19
40 -12 27z"/>
<path d="M1935 3460 c-4 -6 -3 -16 3 -22 13 -13 23 4 13 21 -7 10 -10 10 -16
1z"/>
<path d="M2097 3454 c-4 -4 -4 -10 -1 -15 6 -10 34 0 34 12 0 10 -24 12 -33 3z"/>
<path d="M2260 3445 c0 -13 4 -14 20 -5 11 6 20 13 20 15 0 3 -9 5 -20 5 -11
0 -20 -7 -20 -15z"/>
<path d="M2343 3407 c-11 -15 -26 -27 -32 -27 -19 0 -12 -18 16 -45 30 -27 39
-30 48 -16 3 6 -4 15 -15 21 -24 13 -26 29 -4 45 9 6 15 20 13 30 -4 17 -6 16
-26 -8z"/>
<path d="M2057 3298 c-3 -8 -2 -21 3 -27 11 -19 23 5 12 25 -8 14 -10 14 -15
2z"/>
<path d="M1932 3286 c1 -10 8 -17 13 -17 15 1 12 24 -3 29 -9 3 -13 -2 -10
-12z"/>
<path d="M2220 3293 c1 -18 18 -35 24 -24 4 6 4 16 1 21 -7 12 -25 13 -25 3z"/>
<path d="M2305 3250 c-7 -11 47 -70 64 -70 6 0 11 -18 11 -40 0 -29 -5 -42
-20 -50 -24 -13 -26 -30 -4 -30 9 0 18 9 21 20 3 11 8 18 12 16 16 -10 34 15
34 47 0 26 5 37 19 40 24 7 23 28 -1 34 -11 3 -21 13 -24 24 -7 25 -27 24 -34
-1 -3 -11 -14 -20 -23 -20 -10 0 -22 9 -25 20 -7 22 -20 26 -30 10z"/>
<path d="M2226 3131 c-4 -6 -3 -18 2 -27 6 -11 11 -13 16 -5 4 6 3 18 -2 27
-6 11 -11 13 -16 5z"/>
<path d="M2472 3119 c2 -7 10 -15 17 -17 8 -3 12 1 9 9 -2 7 -10 15 -17 17 -8
3 -12 -1 -9 -9z"/>
<path d="M2097 3084 c-9 -9 4 -35 14 -28 5 3 9 12 9 20 0 14 -12 19 -23 8z"/>
<path d="M2438 3049 c-21 -12 -23 -38 -5 -63 11 -16 15 -14 42 14 29 31 29 32
11 46 -23 16 -25 17 -48 3z"/>
<path d="M1890 3036 c0 -17 14 -29 23 -20 8 8 -3 34 -14 34 -5 0 -9 -6 -9 -14z"/>
<path d="M2350 2990 c0 -11 5 -20 10 -20 6 0 10 9 10 20 0 11 -4 20 -10 20 -5
0 -10 -9 -10 -20z"/>
<path d="M2226 2954 c-8 -22 1 -31 16 -16 9 9 9 15 1 23 -7 7 -12 5 -17 -7z"/>
<path d="M2517 2956 c-6 -16 2 -28 14 -20 12 7 11 34 0 34 -5 0 -11 -6 -14
-14z"/>
<path d="M2102 2917 c-9 -11 -10 -17 -2 -22 15 -9 23 -1 18 21 -3 15 -4 16
-16 1z"/>
<path d="M2400 2919 c-24 -10 -24 -11 -6 -25 11 -8 27 -12 37 -9 9 3 22 -1 28
-9 10 -12 9 -17 -8 -28 -25 -15 -27 -36 -6 -44 22 -9 18 -41 -5 -47 -11 -3
-20 -10 -20 -16 0 -17 40 -13 46 4 9 22 20 19 54 -16 31 -33 31 -49 0 -49 -28
0 -50 -11 -50 -25 0 -15 21 -25 46 -21 11 2 22 -1 26 -7 9 -15 -2 -37 -18 -37
-21 0 -17 -26 8 -42 l21 -14 -23 -22 c-24 -22 -24 -22 -4 -41 16 -14 20 -29
18 -71 -3 -61 9 -100 31 -100 10 0 15 -7 13 -17 -2 -12 5 -19 20 -21 22 -3 23
-8 20 -47 -5 -47 5 -75 27 -75 24 0 19 -47 -5 -53 -11 -3 -20 -10 -20 -16 0
-19 27 -12 41 10 14 21 14 20 47 -10 17 -17 32 -38 32 -45 0 -28 12 -46 31
-46 15 0 19 7 19 35 0 28 4 35 20 35 16 0 20 -7 20 -35 0 -28 4 -35 20 -35 20
0 24 8 20 48 -1 16 4 22 20 22 19 0 21 -5 19 -45 -3 -40 1 -48 35 -82 27 -27
40 -34 44 -24 2 7 15 23 28 34 19 16 24 31 24 69 0 40 3 48 19 48 17 0 19 -8
18 -81 0 -71 -2 -82 -18 -86 -20 -6 -27 -33 -8 -33 6 0 24 12 40 27 27 26 29
33 29 100 0 66 2 73 20 73 16 0 20 -7 20 -34 0 -26 5 -36 20 -41 11 -3 20 -15
20 -26 0 -10 6 -19 14 -19 24 0 31 22 12 36 -10 7 -19 28 -20 48 -3 29 0 35
18 38 13 2 20 10 20 21 -1 9 4 17 12 17 20 0 35 36 28 65 -5 21 -9 23 -25 14
-11 -6 -19 -20 -19 -36 0 -26 -55 -87 -70 -78 -11 7 -10 75 0 75 20 0 37 30
32 59 -8 54 -42 33 -42 -25 0 -17 -6 -24 -19 -24 -15 0 -18 8 -18 51 0 28 -5
55 -10 60 -17 17 -35 -17 -36 -66 0 -37 -4 -45 -19 -45 -16 0 -18 9 -18 79 0
61 3 80 15 85 15 5 22 36 8 36 -5 0 -21 -12 -38 -27 -27 -24 -30 -32 -31 -95
-1 -72 -7 -89 -26 -70 -7 7 -12 49 -12 103 -1 81 1 93 17 97 10 2 17 12 15 20
-4 23 -27 26 -35 5 -4 -10 -15 -24 -25 -31 -10 -7 -18 -24 -18 -37 0 -14 -9
-29 -21 -36 -20 -10 -21 -9 -16 37 4 40 1 51 -19 69 -13 12 -24 30 -24 39 0
23 -25 20 -43 -6 -20 -30 -34 -15 -38 37 -4 48 -57 109 -97 110 -20 0 -26 6
-29 30 -6 40 -20 55 -54 55 -23 0 -29 5 -29 20 0 12 6 20 13 19 38 -5 57 2 57
21 0 16 -7 20 -35 20 -28 0 -35 4 -35 20 0 10 7 23 17 28 10 6 14 16 10 26 -4
10 -11 14 -17 11 -16 -10 -12 25 5 41 8 9 15 20 15 25 0 15 -18 10 -32 -9 -16
-21 -43 -23 -43 -2 0 8 -11 20 -25 27 -14 7 -20 13 -15 13 6 0 1 7 -9 15 -23
17 -23 17 -56 4z"/>
<path d="M1975 2830 c-3 -5 -3 -15 1 -21 6 -11 23 6 24 24 0 10 -18 9 -25 -3z"/>
<path d="M2350 2820 c0 -11 2 -20 5 -20 2 0 9 9 15 20 9 16 8 20 -5 20 -8 0
-15 -9 -15 -20z"/>
<path d="M2222 2793 c-15 -6 -6 -23 14 -23 8 0 14 7 14 15 0 15 -6 17 -28 8z"/>
<path d="M2103 2753 c-18 -6 -16 -23 1 -23 17 0 30 16 19 23 -5 2 -14 2 -20 0z"/>
<path d="M1795 2700 c-4 -6 5 -10 20 -10 15 0 24 4 20 10 -3 6 -12 10 -20 10
-8 0 -17 -4 -20 -10z"/>
<path d="M2267 2667 c-3 -7 -2 -19 3 -26 5 -9 9 -8 14 5 4 9 3 21 -2 26 -6 6
-12 4 -15 -5z"/>
<path d="M2396 2673 c-9 -9 -7 -33 3 -33 12 0 22 28 12 34 -5 3 -11 3 -15 -1z"/>
<path d="M1887 2624 c-4 -4 -4 -10 -1 -15 6 -10 34 0 34 12 0 10 -24 12 -33 3z"/>
<path d="M2055 2619 c-10 -14 -1 -21 19 -13 9 3 13 10 10 15 -7 12 -21 11 -29
-2z"/>
<path d="M2681 2621 c-9 -6 -10 -11 -2 -15 13 -8 31 1 31 15 0 11 -11 11 -29
0z"/>
<path d="M2182 2576 c1 -10 8 -17 13 -17 15 1 12 24 -3 29 -9 3 -13 -2 -10
-12z"/>
<path d="M2431 2581 c-10 -7 -10 -10 -1 -16 6 -4 16 -3 22 3 13 13 -4 23 -21
13z"/>
<path d="M2761 2581 c-8 -5 -9 -11 -3 -15 14 -8 43 4 36 15 -7 11 -15 11 -33
0z"/>
<path d="M2846 2575 c-3 -9 0 -15 9 -15 8 0 15 7 15 15 0 8 -4 15 -9 15 -5 0
-11 -7 -15 -15z"/>
<path d="M2930 2576 c0 -17 14 -29 23 -20 8 8 -3 34 -14 34 -5 0 -9 -6 -9 -14z"/>
<path d="M1680 2536 c0 -8 4 -17 9 -20 10 -7 23 19 14 28 -11 11 -23 6 -23 -8z"/>
<path d="M2307 2536 c-6 -16 2 -28 14 -20 12 7 11 34 0 34 -5 0 -11 -6 -14
-14z"/>
<path d="M3015 2540 c-8 -13 4 -32 16 -25 12 8 12 35 0 35 -6 0 -13 -4 -16
-10z"/>
<path d="M3096 2543 c-11 -11 -6 -23 8 -23 8 0 17 4 20 9 7 10 -19 23 -28 14z"/>
<path d="M3181 2540 c-19 -11 5 -23 25 -12 14 8 14 10 2 15 -8 3 -21 2 -27 -3z"/>
<path d="M1396 2503 c-9 -9 -7 -33 3 -33 12 0 22 28 12 34 -5 3 -11 3 -15 -1z"/>
<path d="M1557 2496 c-6 -16 2 -28 14 -20 12 7 11 34 0 34 -5 0 -11 -6 -14
-14z"/>
<path d="M2023 2503 c-18 -7 -16 -23 2 -23 8 0 15 7 15 15 0 8 -1 15 -2 14 -2
0 -9 -3 -15 -6z"/>
<path d="M2430 2500 c-12 -8 -12 -10 3 -16 21 -8 35 2 21 16 -5 5 -15 6 -24 0z"/>
<path d="M2807 2504 c-9 -10 4 -34 19 -34 16 0 16 2 8 24 -6 17 -16 20 -27 10z"/>
<path d="M2925 2500 c-3 -5 3 -15 15 -22 11 -7 20 -21 20 -30 0 -10 6 -18 14
-18 28 0 27 21 -3 50 -32 33 -37 35 -46 20z"/>
<path d="M3260 2500 c-12 -8 -12 -10 2 -15 26 -10 43 -2 26 12 -8 7 -19 8 -28
3z"/>
<path d="M3347 2496 c-6 -16 2 -28 14 -20 12 7 11 34 0 34 -5 0 -11 -6 -14
-14z"/>
<path d="M1100 2450 c0 -11 5 -20 10 -20 6 0 10 9 10 20 0 11 -4 20 -10 20 -5
0 -10 -9 -10 -20z"/>
<path d="M1215 2446 c-10 -14 -24 -26 -31 -26 -17 0 -19 -16 -3 -25 16 -11 75
53 62 66 -8 8 -16 4 -28 -15z"/>
<path d="M2100 2450 c0 -19 11 -26 23 -14 8 8 -3 34 -14 34 -5 0 -9 -9 -9 -20z"/>
<path d="M2225 2460 c-4 -6 -2 -17 4 -23 15 -15 25 -2 13 19 -7 12 -11 13 -17
4z"/>
<path d="M2837 2464 c-9 -10 4 -34 19 -34 8 0 14 9 14 20 0 19 -19 27 -33 14z"/>
<path d="M3082 2441 c-31 -29 -41 -51 -23 -51 15 0 72 61 65 71 -7 12 -5 13
-42 -20z"/>
<path d="M3180 2456 c0 -17 14 -29 23 -20 8 8 -3 34 -14 34 -5 0 -9 -6 -9 -14z"/>
<path d="M3430 2456 c0 -17 14 -29 23 -20 8 8 -3 34 -14 34 -5 0 -9 -6 -9 -14z"/>
<path d="M3517 2464 c-8 -8 3 -34 14 -34 11 0 12 27 0 34 -4 3 -11 3 -14 0z"/>
<path d="M1300 2451 c0 -18 18 -21 30 -6 10 13 9 15 -9 15 -11 0 -21 -4 -21
-9z"/>
<path d="M1465 2450 c-4 -6 5 -10 20 -10 15 0 24 4 20 10 -3 6 -12 10 -20 10
-8 0 -17 -4 -20 -10z"/>
<path d="M1015 2420 c-4 -6 -2 -17 4 -23 15 -15 25 -2 13 19 -7 12 -11 13 -17
4z"/>
<path d="M1807 2424 c-8 -8 3 -34 14 -34 11 0 12 27 0 34 -4 3 -11 3 -14 0z"/>
<path d="M2350 2411 c0 -11 4 -21 9 -21 18 0 21 18 6 30 -13 10 -15 9 -15 -9z"/>
<path d="M2475 2420 c-4 -6 -2 -17 4 -23 15 -15 25 -2 13 19 -7 12 -11 13 -17
4z"/>
<path d="M2934 2415 c-8 -19 9 -40 24 -31 13 8 9 39 -6 44 -7 2 -15 -4 -18
-13z"/>
<path d="M3345 2421 c-8 -14 51 -75 65 -66 9 5 4 15 -14 32 -14 13 -26 28 -26
33 0 13 -17 13 -25 1z"/>
<path d="M3593 2407 c-11 -15 -26 -27 -32 -27 -6 0 -11 -7 -11 -15 0 -8 6 -15
13 -15 19 0 59 48 55 67 -3 15 -7 13 -25 -10z"/>
<path d="M3260 2411 c0 -11 26 -22 34 -14 3 3 3 10 0 14 -7 12 -34 11 -34 0z"/>
<path d="M3677 2414 c-4 -4 -4 -10 -1 -15 6 -10 34 0 34 12 0 10 -24 12 -33 3z"/>
<path d="M2016 2374 c-8 -22 1 -31 16 -16 9 9 9 15 1 23 -7 7 -12 5 -17 -7z"/>
<path d="M2146 2383 c-9 -9 -7 -33 3 -33 12 0 22 28 12 34 -5 3 -11 3 -15 -1z"/>
<path d="M3476 2381 c-4 -6 -3 -18 2 -27 6 -11 11 -13 16 -5 4 6 3 18 -2 27
-6 11 -11 13 -16 5z"/>
<path d="M931 2371 c-9 -6 -10 -11 -2 -15 13 -8 31 1 31 15 0 11 -11 11 -29 0z"/>
<path d="M1408 2350 c-30 -31 -34 -40 -17 -40 12 0 69 51 69 62 0 17 -26 6
-52 -22z"/>
<path d="M1550 2371 c0 -14 18 -23 31 -15 8 4 7 9 -2 15 -18 11 -29 11 -29 0z"/>
<path d="M3173 2360 c-3 -11 -12 -20 -19 -20 -8 0 -14 -9 -14 -20 0 -11 6 -20
14 -20 8 0 16 -7 20 -15 6 -16 36 -21 36 -6 0 6 -10 17 -22 25 l-22 16 22 23
c26 28 28 37 6 37 -9 0 -18 -9 -21 -20z"/>
<path d="M2226 2341 c-4 -6 -3 -18 2 -27 6 -11 11 -13 16 -5 4 6 3 18 -2 27
-6 11 -11 13 -16 5z"/>
<path d="M805 2329 c-10 -14 -1 -21 19 -13 9 3 13 10 10 15 -7 12 -21 11 -29
-2z"/>
<path d="M1006 2331 c-3 -5 1 -12 10 -15 20 -8 29 -1 19 13 -8 13 -22 14 -29
2z"/>
<path d="M1141 2331 c-9 -6 -10 -11 -2 -15 13 -8 31 1 31 15 0 11 -11 11 -29
0z"/>
<path d="M1255 2330 c-7 -12 27 -22 37 -12 6 6 1 12 -11 15 -12 3 -23 2 -26
-3z"/>
<path d="M1930 2326 c0 -8 4 -17 9 -20 10 -7 23 19 14 28 -11 11 -23 6 -23 -8z"/>
<path d="M2430 2329 c0 -15 42 -59 58 -59 19 0 14 13 -17 43 -32 29 -41 33
-41 16z"/>
<path d="M3260 2333 c0 -4 9 -17 21 -29 l20 -22 -21 -20 c-12 -11 -20 -26 -18
-33 2 -7 19 2 41 23 30 29 35 38 24 47 -8 6 -17 8 -21 4 -4 -4 -9 3 -13 15 -5
20 -33 32 -33 15z"/>
<path d="M3641 2331 c-9 -6 -10 -11 -2 -15 13 -8 31 1 31 15 0 11 -11 11 -29
0z"/>
<path d="M3720 2326 c0 -8 4 -17 9 -20 10 -7 23 19 14 28 -11 11 -23 6 -23 -8z"/>
<path d="M702 2266 c-18 -19 -29 -37 -23 -40 10 -7 71 49 71 65 0 17 -15 9
-48 -25z"/>
<path d="M893 2293 c-18 -6 -16 -23 1 -23 17 0 30 16 19 23 -5 2 -14 2 -20 0z"/>
<path d="M1720 2290 c-12 -8 -12 -10 3 -16 21 -8 35 2 21 16 -5 5 -15 6 -24 0z"/>
<path d="M2079 2270 c-22 -19 -30 -33 -24 -39 7 -7 22 2 43 24 42 42 25 56
-19 15z"/>
<path d="M2307 2280 c3 -11 9 -17 14 -14 14 8 10 34 -5 34 -9 0 -12 -7 -9 -20z"/>
<path d="M3390 2280 c0 -11 4 -20 9 -20 11 0 22 26 14 34 -12 12 -23 5 -23
-14z"/>
<path d="M3475 2290 c-4 -6 -3 -16 3 -22 6 -6 12 -6 17 2 4 6 3 16 -3 22 -6 6
-12 6 -17 -2z"/>
<path d="M3557 2286 c-6 -16 2 -28 14 -20 12 7 11 34 0 34 -5 0 -11 -6 -14
-14z"/>
<path d="M3807 2286 c-6 -16 2 -28 14 -20 12 7 11 34 0 34 -5 0 -11 -6 -14
-14z"/>
<path d="M1226 2253 c-9 -9 -7 -33 3 -33 12 0 22 28 12 34 -5 3 -11 3 -15 -1z"/>
<path d="M2555 2250 c-11 -17 5 -32 21 -19 8 6 14 15 14 20 0 12 -27 11 -35
-1z"/>
<path d="M3640 2240 c0 -11 5 -20 10 -20 6 0 10 9 10 20 0 11 -4 20 -10 20 -5
0 -10 -9 -10 -20z"/>
<path d="M3891 2246 c-7 -8 -8 -17 -3 -20 6 -3 15 1 21 8 7 8 8 17 3 20 -6 3
-15 -1 -21 -8z"/>
<path d="M3710 2225 c0 -14 8 -29 20 -35 17 -9 20 -7 26 14 7 31 -1 46 -27 46
-14 0 -19 -7 -19 -25z"/>
<path d="M597 2213 c-10 -16 11 -39 23 -27 8 8 7 14 -4 23 -8 7 -17 8 -19 4z"/>
<path d="M847 2213 c-10 -16 11 -39 23 -27 8 8 7 14 -4 23 -8 7 -17 8 -19 4z"/>
<path d="M1017 2213 c-3 -5 -2 -15 2 -22 7 -10 10 -10 16 -1 4 6 3 16 -3 22
-5 5 -12 6 -15 1z"/>
<path d="M1100 2200 c0 -19 11 -26 23 -14 8 8 -3 34 -14 34 -5 0 -9 -9 -9 -20z"/>
<path d="M1390 2200 c0 -19 11 -26 23 -14 8 8 -3 34 -14 34 -5 0 -9 -9 -9 -20z"/>
<path d="M1935 2210 c-4 -6 -3 -16 3 -22 13 -13 23 4 13 21 -7 10 -10 10 -16
1z"/>
<path d="M2225 2210 c-4 -6 -2 -17 4 -23 15 -15 25 -2 13 19 -7 12 -11 13 -17
4z"/>
<path d="M2347 2214 c-8 -8 3 -34 14 -34 5 0 9 9 9 20 0 19 -11 26 -23 14z"/>
<path d="M2475 2210 c-4 -6 -3 -16 3 -22 6 -6 12 -6 17 2 4 6 3 16 -3 22 -6 6
-12 6 -17 -2z"/>
<path d="M3388 2202 c-7 -10 -21 -23 -31 -28 -15 -9 -16 -12 -3 -29 14 -19 15
-19 25 8 6 15 15 27 20 27 13 0 22 28 11 35 -5 3 -15 -3 -22 -13z"/>
<path d="M3470 2213 c0 -5 4 -15 10 -23 11 -18 25 -7 17 15 -6 15 -27 21 -27
8z"/>
<path d="M3557 2206 c-6 -16 2 -28 14 -20 12 7 11 34 0 34 -5 0 -11 -6 -14
-14z"/>
<path d="M3803 2197 c-18 -40 -8 -82 27 -116 18 -17 37 -31 41 -31 5 0 9 -10
9 -22 0 -12 -3 -18 -7 -15 -9 9 -44 -23 -37 -34 3 -5 -4 -9 -15 -9 -15 0 -21
9 -26 40 -7 41 -28 54 -39 24 -9 -25 -7 -33 14 -54 24 -24 34 -90 13 -90 -16
0 -113 94 -113 109 0 5 9 13 20 16 27 8 25 15 -11 49 -21 20 -33 26 -41 18 -7
-7 -4 -14 11 -24 24 -15 28 -48 6 -48 -8 0 -15 -9 -15 -20 0 -11 7 -20 15 -20
8 0 15 -7 15 -16 0 -9 9 -18 20 -21 30 -8 24 -29 -21 -71 -38 -37 -40 -42 -40
-98 0 -55 -11 -84 -30 -84 -5 0 -9 47 -9 105 0 85 -3 105 -14 105 -24 0 -30
-21 -31 -112 -1 -48 -4 -91 -8 -94 -10 -10 -39 5 -32 16 11 17 -4 60 -20 60
-24 0 -26 17 -4 44 12 15 19 29 17 32 -9 8 -38 -8 -38 -21 0 -19 -27 -12 -43
9 -8 11 -20 17 -27 14 -10 -3 -8 -10 8 -26 27 -27 28 -48 2 -55 -11 -3 -20
-12 -20 -21 0 -9 -6 -16 -14 -16 -20 0 -30 -19 -28 -52 2 -23 -2 -28 -22 -28
-16 0 -26 7 -30 22 -4 19 -8 20 -18 10 -11 -11 -9 -17 10 -32 l23 -19 -22 -20
c-30 -27 -33 -67 -7 -85 24 -17 33 -75 13 -82 -19 -8 -68 46 -70 75 0 13 -11
31 -23 39 -27 18 -28 38 -2 52 11 6 20 15 20 21 0 6 -9 13 -20 16 -11 3 -20
13 -20 23 0 10 9 20 20 23 11 3 20 10 20 16 0 6 -9 15 -20 21 -19 10 -28 40
-12 40 4 0 13 4 21 9 12 7 8 16 -18 41 -23 23 -35 30 -43 22 -7 -7 -4 -14 11
-24 24 -15 28 -48 6 -48 -8 0 -15 -9 -15 -20 0 -11 7 -20 15 -20 22 0 18 -29
-7 -50 l-22 -17 22 -12 c27 -15 28 -37 2 -51 -21 -11 -17 -40 6 -40 10 0 14
-12 14 -40 0 -33 3 -40 19 -40 11 0 23 -9 26 -20 3 -11 13 -20 22 -20 8 0 17
-9 20 -20 7 -25 33 -26 40 -1 3 11 13 21 24 24 14 4 19 14 19 42 0 29 3 36 18
33 11 -2 18 -14 20 -35 2 -17 9 -34 17 -37 18 -6 24 3 27 43 3 36 33 44 43 10
5 -14 13 -19 25 -16 12 3 17 0 13 -8 -2 -8 5 -18 16 -25 28 -14 28 6 1 35
l-20 21 31 23 c30 22 33 23 59 8 33 -20 40 -14 40 29 0 18 6 34 14 37 19 8 26
-1 26 -35 0 -17 6 -31 16 -35 17 -6 36 15 30 34 -3 6 1 19 8 28 11 15 13 15
30 -4 11 -12 23 -21 28 -21 14 0 9 22 -9 36 -13 9 -15 16 -7 24 19 20 48 18
72 -3 16 -15 25 -18 33 -10 8 8 4 15 -12 27 -26 18 -16 37 23 43 32 5 39 15
42 60 1 22 6 45 10 51 13 21 26 13 26 -17 0 -38 25 -60 38 -34 12 24 7 54 -12
65 -13 7 -12 13 2 48 11 25 24 40 35 40 10 0 17 8 17 20 0 11 -6 20 -14 20
-22 0 -27 37 -5 43 26 7 24 33 -2 40 -12 3 -18 10 -14 16 3 6 -5 16 -19 23
-20 8 -25 17 -22 35 5 22 -16 53 -35 53 -5 0 -9 -18 -9 -39 0 -22 -4 -42 -9
-45 -5 -3 -23 8 -40 24 -25 25 -31 38 -31 74 0 53 -21 78 -37 43z"/>
<path d="M726 2171 c-9 -14 2 -34 30 -54 28 -21 52 -14 30 9 -8 8 -19 14 -25
14 -6 0 -11 6 -11 14 0 18 -17 30 -24 17z"/>
<path d="M936 2171 c-4 -6 -3 -18 2 -27 8 -14 10 -14 15 -2 7 19 -8 44 -17 29z"/>
<path d="M1557 2174 c-8 -8 3 -34 14 -34 11 0 12 27 0 34 -4 3 -11 3 -14 0z"/>
<path d="M1807 2174 c-8 -8 3 -34 14 -34 11 0 12 27 0 34 -4 3 -11 3 -14 0z"/>
<path d="M2097 2174 c-8 -8 3 -34 14 -34 11 0 12 27 0 34 -4 3 -11 3 -14 0z"/>
<path d="M2562 2168 c-16 -16 -15 -28 3 -28 8 0 15 9 15 20 0 23 -2 24 -18 8z"/>
<path d="M3641 2166 c-10 -12 -6 -26 10 -26 11 0 19 29 10 35 -5 2 -14 -1 -20
-9z"/>
<path d="M3887 2174 c-3 -4 -2 -16 4 -26 13 -24 33 -10 23 15 -6 18 -16 21
-27 11z"/>
<path d="M1305 2159 c-10 -14 -1 -21 19 -13 9 3 13 10 10 15 -7 12 -21 11 -29
-2z"/>
<path d="M556 2125 c-9 -24 5 -41 16 -20 7 11 7 20 0 27 -6 6 -12 3 -16 -7z"/>
<path d="M1976 2131 c-4 -6 -3 -18 2 -27 6 -11 11 -13 16 -5 4 6 3 18 -2 27
-6 11 -11 13 -16 5z"/>
<path d="M3380 2121 c0 -10 -10 -26 -22 -35 -17 -13 -20 -18 -9 -23 7 -3 21
-14 29 -24 18 -20 42 -25 42 -9 0 5 -9 15 -20 22 -25 16 -26 34 0 48 11 6 17
16 14 25 -9 21 -34 18 -34 -4z"/>
<path d="M3476 2124 c-8 -22 1 -31 16 -16 9 9 9 15 1 23 -7 7 -12 5 -17 -7z"/>
<path d="M3556 2124 c-9 -22 -8 -24 9 -24 8 0 15 6 15 14 0 22 -17 28 -24 10z"/>
<path d="M1175 2121 c-3 -5 -1 -12 5 -16 12 -7 30 2 30 16 0 12 -27 12 -35 0z"/>
<path d="M1675 2121 c-3 -5 -1 -12 5 -16 12 -7 30 2 30 16 0 12 -27 12 -35 0z"/>
<path d="M2347 2123 c-12 -11 -8 -23 8 -23 8 0 15 7 15 15 0 16 -12 20 -23 8z"/>
<path d="M2447 2100 c-36 -38 -15 -51 24 -14 16 15 29 31 29 36 0 17 -26 6
-53 -22z"/>
<path d="M3720 2121 c0 -14 18 -23 31 -15 8 4 7 9 -2 15 -18 11 -29 11 -29 0z"/>
<path d="M635 2080 c-8 -13 15 -24 27 -12 6 6 4 11 -6 15 -8 3 -18 2 -21 -3z"/>
<path d="M1890 2080 c-20 -12 -5 -24 16 -12 9 5 12 12 7 15 -5 3 -15 2 -23 -3z"/>
<path d="M2140 2076 c0 -24 17 -28 23 -6 3 13 0 20 -9 20 -8 0 -14 -6 -14 -14z"/>
<path d="M2265 2079 c-10 -14 -1 -21 19 -13 9 3 13 10 10 15 -7 12 -21 11 -29
-2z"/>
<path d="M2555 2079 c-10 -14 -1 -21 19 -13 9 3 13 10 10 15 -7 12 -21 11 -29
-2z"/>
<path d="M850 2030 c0 -11 5 -20 10 -20 6 0 10 9 10 20 0 11 -4 20 -10 20 -5
0 -10 -9 -10 -20z"/>
<path d="M970 2043 c1 -18 18 -35 24 -24 4 6 4 16 1 21 -7 12 -25 13 -25 3z"/>
<path d="M1100 2036 c0 -8 5 -18 10 -21 6 -3 10 3 10 14 0 12 -4 21 -10 21 -5
0 -10 -6 -10 -14z"/>
<path d="M2051 2040 c-9 -5 -8 -9 5 -14 9 -4 21 -3 26 2 12 12 -15 23 -31 12z"/>
<path d="M3250 2040 c0 -5 9 -15 20 -22 11 -7 20 -22 20 -33 0 -12 6 -30 14
-40 13 -18 14 -18 26 4 9 18 9 30 1 48 -6 13 -15 22 -20 19 -5 -3 -11 3 -14
14 -5 20 -47 29 -47 10z"/>
<path d="M3464 2035 c-3 -8 -2 -26 3 -40 7 -23 10 -24 26 -12 14 9 17 20 12
40 -8 29 -32 36 -41 12z"/>
<path d="M3557 2036 c-6 -16 2 -28 14 -20 12 7 11 34 0 34 -5 0 -11 -6 -14
-14z"/>
<path d="M474 1995 c-19 -14 -18 -14 4 -15 13 0 22 6 22 15 0 19 -1 19 -26 0z"/>
<path d="M676 2003 c-3 -3 -3 -10 0 -14 7 -12 34 -11 34 0 0 11 -26 22 -34 14z"/>
<path d="M1307 2004 c-8 -8 3 -34 14 -34 11 0 12 27 0 34 -4 3 -11 3 -14 0z"/>
<path d="M1432 1996 c1 -10 8 -17 13 -17 15 1 12 24 -3 29 -9 3 -13 -2 -10
-12z"/>
<path d="M1557 2003 c-3 -5 -2 -15 2 -22 7 -10 10 -10 16 -1 4 6 3 16 -3 22
-5 5 -12 6 -15 1z"/>
<path d="M1720 1996 c0 -17 14 -29 23 -20 8 8 -3 34 -14 34 -5 0 -9 -6 -9 -14z"/>
<path d="M1850 1990 c0 -11 5 -20 10 -20 6 0 10 9 10 20 0 11 -4 20 -10 20 -5
0 -10 -9 -10 -20z"/>
<path d="M2180 1995 c-10 -13 -9 -15 9 -15 11 0 21 4 21 9 0 18 -18 21 -30 6z"/>
<path d="M2304 1999 c-8 -14 54 -71 68 -63 7 5 1 16 -15 30 -15 13 -27 28 -27
34 0 13 -17 13 -26 -1z"/>
<path d="M2434 1995 c-19 -14 -18 -14 4 -15 13 0 22 6 22 15 0 19 -1 19 -26 0z"/>
<path d="M2515 2000 c-4 -6 -3 -16 3 -22 6 -6 12 -6 17 2 4 6 3 16 -3 22 -6 6
-12 6 -17 -2z"/>
<path d="M2597 1996 c-6 -16 2 -28 14 -20 12 7 11 34 0 34 -5 0 -11 -6 -14
-14z"/>
<path d="M2683 2003 c-17 -6 -16 -48 1 -62 17 -14 35 5 30 33 -3 24 -16 35
-31 29z"/>
<path d="M557 1956 c-6 -15 1 -26 15 -26 4 0 8 9 8 20 0 23 -15 27 -23 6z"/>
<path d="M1936 1963 c-9 -9 -7 -33 3 -33 12 0 22 28 12 34 -5 3 -11 3 -15 -1z"/>
<path d="M2057 1956 c-6 -15 1 -26 15 -26 4 0 8 9 8 20 0 23 -15 27 -23 6z"/>
<path d="M3554 1958 c-4 -6 1 -17 12 -25 10 -8 19 -19 19 -26 0 -6 8 -13 18
-15 12 -2 17 3 17 17 0 13 -6 21 -16 21 -9 0 -18 9 -21 20 -6 22 -18 26 -29 8z"/>
<path d="M762 1949 c2 -6 8 -10 13 -10 5 0 11 4 13 10 2 6 -4 11 -13 11 -9 0
-15 -5 -13 -11z"/>
<path d="M3380 1931 c0 -52 35 -53 42 -1 2 20 -2 26 -19 28 -20 3 -23 -1 -23
-27z"/>
<path d="M894 1917 c-8 -21 2 -35 16 -21 5 5 6 15 0 24 -8 12 -10 12 -16 -3z"/>
<path d="M1015 1920 c-7 -12 2 -30 16 -30 12 0 12 27 0 35 -5 3 -12 1 -16 -5z"/>
<path d="M1184 1917 c-8 -21 2 -35 16 -21 5 5 6 15 0 24 -8 12 -10 12 -16 -3z"/>
<path d="M2554 1919 c-9 -15 53 -76 65 -64 6 7 -2 22 -24 42 -21 21 -37 29
-41 22z"/>
<path d="M2764 1916 c-8 -22 3 -33 18 -18 9 9 9 15 0 24 -9 9 -13 7 -18 -6z"/>
<path d="M2846 1922 c-4 -6 2 -19 14 -29 25 -22 26 -39 0 -53 -20 -11 -18 -40
4 -40 6 0 17 -10 24 -21 11 -16 16 -19 25 -9 9 9 7 16 -10 30 -28 23 -29 46
-3 53 13 3 18 10 14 21 -3 9 -11 16 -16 16 -5 0 -18 10 -27 22 -12 14 -20 18
-25 10z"/>
<path d="M3184 1916 c-7 -17 42 -76 63 -76 7 0 12 -5 11 -12 -2 -6 6 -16 17
-22 25 -14 26 -31 1 -49 -12 -8 -16 -19 -11 -26 5 -9 15 -4 36 19 33 35 35 45
14 54 -8 3 -15 12 -15 20 0 7 7 16 15 20 8 3 15 15 15 26 0 18 -2 19 -20 8
-11 -7 -20 -18 -20 -25 0 -20 -14 -15 -38 12 -12 14 -26 25 -31 25 -5 0 -8 7
-7 16 1 22 -22 30 -30 10z"/>
<path d="M1637 1914 c-4 -4 -4 -10 -1 -15 6 -10 34 0 34 12 0 10 -24 12 -33 3z"/>
<path d="M2175 1911 c-3 -5 -1 -12 5 -16 12 -7 30 2 30 16 0 12 -27 12 -35 0z"/>
<path d="M2465 1910 c-3 -5 3 -10 14 -10 12 0 21 5 21 10 0 6 -6 10 -14 10 -8
0 -18 -4 -21 -10z"/>
<path d="M3467 1914 c-4 -4 -4 -10 -1 -15 6 -10 34 0 34 12 0 10 -24 12 -33 3z"/>
<path d="M686 1882 c-4 -7 -3 -19 2 -28 12 -21 22 -5 12 20 -4 13 -9 16 -14 8z"/>
<path d="M1725 1880 c-4 -6 -2 -17 4 -23 15 -15 25 -2 13 19 -7 12 -11 13 -17
4z"/>
<path d="M1850 1870 c0 -11 7 -20 15 -20 13 0 14 4 5 20 -6 11 -13 20 -15 20
-3 0 -5 -9 -5 -20z"/>
<path d="M2686 1874 c-8 -22 1 -31 16 -16 9 9 9 15 1 23 -7 7 -12 5 -17 -7z"/>
<path d="M472 1869 c2 -7 10 -15 17 -17 8 -3 12 1 9 9 -2 7 -10 15 -17 17 -8
3 -12 -1 -9 -9z"/>
<path d="M2011 1871 c-9 -6 -10 -11 -2 -15 13 -8 31 1 31 15 0 11 -11 11 -29
0z"/>
<path d="M2260 1864 c0 -9 5 -14 12 -12 18 6 21 28 4 28 -9 0 -16 -7 -16 -16z"/>
<path d="M2368 1850 c-30 -31 -34 -40 -17 -40 12 0 69 51 69 62 0 17 -26 6
-52 -22z"/>
<path d="M601 1831 c-10 -7 -10 -10 -1 -16 6 -4 16 -3 22 3 13 13 -4 23 -21
13z"/>
<path d="M807 1826 c-6 -16 2 -28 14 -20 12 7 11 34 0 34 -5 0 -11 -6 -14 -14z"/>
<path d="M1307 1826 c-6 -16 2 -28 14 -20 12 7 11 34 0 34 -5 0 -11 -6 -14
-14z"/>
<path d="M1425 1830 c-3 -6 1 -13 10 -16 19 -8 30 0 20 15 -8 14 -22 14 -30 1z"/>
<path d="M1557 1826 c-6 -16 2 -28 14 -20 12 7 11 34 0 34 -5 0 -11 -6 -14
-14z"/>
<path d="M2095 1831 c-7 -12 12 -24 25 -16 11 7 4 25 -10 25 -5 0 -11 -4 -15
-9z"/>
<path d="M2520 1830 c-20 -12 -5 -24 16 -12 9 5 12 12 7 15 -5 3 -15 2 -23 -3z"/>
<path d="M2767 1826 c-6 -16 2 -28 14 -20 12 7 11 34 0 34 -5 0 -11 -6 -14
-14z"/>
<path d="M2970 1826 c0 -9 7 -16 16 -16 17 0 14 22 -4 28 -7 2 -12 -3 -12 -12z"/>
<path d="M1976 1794 c-4 -9 -3 -21 2 -26 12 -12 23 15 12 31 -5 9 -9 8 -14 -5z"/>
<path d="M2436 1794 c-4 -9 -3 -21 2 -26 12 -12 23 15 12 31 -5 9 -9 8 -14 -5z"/>
<path d="M975 1790 c-3 -5 -3 -15 1 -21 6 -11 23 6 24 24 0 10 -18 9 -25 -3z"/>
<path d="M1103 1793 c-18 -6 -16 -23 1 -23 17 0 30 16 19 23 -5 2 -14 2 -20 0z"/>
<path d="M1765 1790 c-3 -5 -3 -15 1 -21 6 -11 23 6 24 24 0 10 -18 9 -25 -3z"/>
<path d="M2225 1790 c-3 -5 -3 -15 1 -21 6 -11 23 6 24 24 0 10 -18 9 -25 -3z"/>
<path d="M2680 1786 c0 -17 14 -29 23 -20 8 8 -3 34 -14 34 -5 0 -9 -6 -9 -14z"/>
<path d="M3057 1786 c-6 -16 2 -28 14 -20 12 7 11 34 0 34 -5 0 -11 -6 -14
-14z"/>
<path d="M680 1746 c0 -17 14 -29 23 -20 8 8 -3 34 -14 34 -5 0 -9 -6 -9 -14z"/>
<path d="M890 1740 c0 -11 4 -20 9 -20 11 0 22 26 14 34 -12 12 -23 5 -23 -14z"/>
<path d="M1896 1753 c-9 -9 -7 -33 3 -33 12 0 22 28 12 34 -5 3 -11 3 -15 -1z"/>
<path d="M2141 1751 c-10 -7 -10 -10 -1 -16 6 -4 16 -3 22 3 13 13 -4 23 -21
13z"/>
<path d="M2517 1746 c-6 -16 2 -28 14 -20 12 7 11 34 0 34 -5 0 -11 -6 -14
-14z"/>
<path d="M2596 1753 c-3 -3 -3 -10 0 -14 7 -12 34 -11 34 0 0 11 -26 22 -34
14z"/>
<path d="M2764 1749 c-3 -6 9 -25 27 -41 23 -21 34 -27 37 -18 3 8 -5 21 -17
31 -11 9 -21 22 -21 28 0 14 -17 14 -26 0z"/>
<path d="M2975 1750 c-4 -6 -3 -16 3 -22 6 -6 12 -6 17 2 4 6 3 16 -3 22 -6 6
-12 6 -17 -2z"/>
<path d="M1630 1740 c0 -5 9 -10 20 -10 11 0 20 5 20 10 0 6 -9 10 -20 10 -11
0 -20 -4 -20 -10z"/>
<path d="M557 1714 c-8 -8 3 -34 14 -34 11 0 12 27 0 34 -4 3 -11 3 -14 0z"/>
<path d="M2057 1714 c-8 -8 3 -34 14 -34 11 0 12 27 0 34 -4 3 -11 3 -14 0z"/>
<path d="M2390 1700 c0 -11 5 -20 10 -20 6 0 10 9 10 20 0 11 -4 20 -10 20 -5
0 -10 -9 -10 -20z"/>
<path d="M2680 1706 c0 -17 14 -29 23 -20 8 8 -3 34 -14 34 -5 0 -9 -6 -9 -14z"/>
<path d="M2894 1707 c-8 -21 2 -35 16 -21 5 5 6 15 0 24 -8 12 -10 12 -16 -3z"/>
<path d="M800 1700 c0 -5 9 -10 21 -10 11 0 17 5 14 10 -3 6 -13 10 -21 10 -8
0 -14 -4 -14 -10z"/>
<path d="M1210 1705 c0 -2 9 -9 20 -15 16 -9 20 -8 20 5 0 8 -9 15 -20 15 -11
0 -20 -2 -20 -5z"/>
<path d="M2300 1701 c0 -18 18 -21 30 -6 10 13 9 15 -9 15 -11 0 -21 -4 -21
-9z"/>
<path d="M3050 1702 c0 -14 11 -21 26 -15 8 3 11 9 8 14 -7 11 -34 12 -34 1z"/>
<path d="M726 1664 c-8 -22 1 -31 16 -16 9 9 9 15 1 23 -7 7 -12 5 -17 -7z"/>
<path d="M1016 1664 c-8 -22 1 -31 16 -16 9 9 9 15 1 23 -7 7 -12 5 -17 -7z"/>
<path d="M1347 1666 c-6 -15 1 -26 15 -26 11 0 10 27 -1 34 -5 3 -11 0 -14 -8z"/>
<path d="M1597 1666 c-6 -15 1 -26 15 -26 11 0 10 27 -1 34 -5 3 -11 0 -14 -8z"/>
<path d="M1854 1666 c-10 -27 2 -43 14 -19 8 14 9 24 2 28 -6 3 -13 -1 -16 -9z"/>
<path d="M2176 1671 c-7 -10 50 -71 65 -71 17 0 9 29 -10 35 -10 3 -21 15 -24
25 -5 21 -22 26 -31 11z"/>
<path d="M2470 1668 c0 -14 50 -68 62 -68 17 0 7 32 -11 37 -11 3 -21 13 -24
24 -6 21 -27 26 -27 7z"/>
<path d="M2597 1673 c-10 -16 11 -39 23 -27 8 8 7 14 -4 23 -8 7 -17 8 -19 4z"/>
<path d="M2975 1670 c-4 -6 -2 -17 4 -23 15 -15 25 -2 13 19 -7 12 -11 13 -17
4z"/>
<path d="M1466 1661 c-3 -5 3 -11 14 -14 13 -3 20 0 20 9 0 15 -26 19 -34 5z"/>
<path d="M1716 1661 c-3 -5 0 -11 8 -14 15 -6 26 1 26 15 0 11 -27 10 -34 -1z"/>
<path d="M1140 1621 c0 -11 4 -21 9 -21 18 0 21 18 6 30 -13 10 -15 9 -15 -9z"/>
<path d="M2018 1634 c-9 -14 7 -50 16 -36 4 7 3 19 -2 28 -5 9 -12 13 -14 8z"/>
<path d="M2806 1624 c-9 -22 -8 -24 9 -24 8 0 15 6 15 14 0 22 -17 28 -24 10z"/>
<path d="M3057 1620 c-3 -13 0 -20 9 -20 15 0 19 26 5 34 -5 3 -11 -3 -14 -14z"/>
<path d="M887 1624 c-4 -4 -4 -10 -1 -15 6 -10 34 0 34 12 0 10 -24 12 -33 3z"/>
<path d="M2345 1619 c-10 -15 1 -23 20 -15 9 3 13 10 10 16 -8 13 -22 13 -30
-1z"/>
<path d="M2721 1621 c-9 -6 -10 -11 -2 -15 13 -8 31 1 31 15 0 11 -11 11 -29
0z"/>
<path d="M2890 1615 c0 -9 5 -15 11 -13 6 2 11 8 11 13 0 5 -5 11 -11 13 -6 2
-11 -4 -11 -13z"/>
<path d="M1807 1588 c-3 -8 -2 -21 3 -27 11 -19 23 5 12 25 -8 14 -10 14 -15
2z"/>
<path d="M2645 1588 c-10 -26 -2 -43 12 -26 7 8 8 19 3 28 -8 12 -10 12 -15
-2z"/>
<path d="M1057 1584 c-9 -9 4 -35 14 -28 5 3 9 12 9 20 0 14 -12 19 -23 8z"/>
<path d="M1260 1583 c1 -18 18 -35 24 -24 4 6 4 16 1 21 -7 12 -25 13 -25 3z"/>
<path d="M1431 1581 c-9 -6 -10 -11 -2 -15 13 -8 31 1 31 15 0 11 -11 11 -29
0z"/>
<path d="M1930 1576 c0 -17 14 -29 23 -20 8 8 -3 34 -14 34 -5 0 -9 -6 -9 -14z"/>
<path d="M2140 1575 c0 -8 7 -15 15 -15 9 0 12 6 9 15 -4 8 -10 15 -15 15 -5
0 -9 -7 -9 -15z"/>
<path d="M2973 1583 c-7 -2 -13 -11 -13 -19 0 -8 -6 -14 -14 -14 -21 0 -30
-19 -12 -26 9 -4 25 5 41 22 34 37 33 52 -2 37z"/>
<path d="M725 1540 c-3 -5 -3 -15 1 -21 6 -11 23 6 24 24 0 10 -18 9 -25 -3z"/>
<path d="M847 1536 c-6 -16 2 -28 14 -20 12 7 11 34 0 34 -5 0 -11 -6 -14 -14z"/>
<path d="M1555 1540 c-8 -13 4 -32 16 -25 12 8 12 35 0 35 -6 0 -13 -4 -16
-10z"/>
<path d="M1680 1540 c-12 -8 -12 -10 3 -16 21 -8 35 2 21 16 -5 5 -15 6 -24 0z"/>
<path d="M2050 1534 c0 -8 9 -14 20 -14 11 0 20 4 20 9 0 5 -9 11 -20 14 -13
3 -20 0 -20 -9z"/>
<path d="M2307 1536 c-6 -16 2 -28 14 -20 12 7 11 34 0 34 -5 0 -11 -6 -14
-14z"/>
<path d="M2433 1543 c-7 -2 -13 -11 -13 -18 0 -8 -9 -17 -20 -20 -20 -6 -25
-16 -14 -28 9 -9 34 3 34 17 0 6 9 17 20 24 32 19 26 39 -7 25z"/>
<path d="M2537 1521 c-25 -27 -35 -51 -22 -51 12 0 74 67 68 73 -11 11 -17 8
-46 -22z"/>
<path d="M2725 1539 c-4 -6 -3 -15 3 -21 6 -6 11 -4 15 6 7 18 -9 31 -18 15z"/>
<path d="M2826 1518 c-29 -30 -29 -30 -10 -47 21 -17 26 -40 9 -42 -16 -1 -30
-32 -16 -37 7 -2 21 -13 32 -25 14 -15 22 -18 30 -10 8 8 6 15 -10 25 -24 15
-28 48 -6 48 8 0 15 9 15 20 0 11 -7 20 -15 20 -21 0 -19 24 5 45 11 10 17 22
14 26 -8 14 -17 10 -48 -23z"/>
<path d="M3050 1536 c0 -8 -9 -18 -20 -21 -11 -3 -20 -9 -21 -13 0 -4 -2 -15
-4 -26 -5 -24 4 -46 19 -46 6 0 17 -9 24 -20 7 -11 17 -20 22 -20 16 0 12 30
-5 36 -10 4 -15 20 -15 45 0 32 4 39 19 39 10 0 21 -9 24 -20 3 -11 12 -20 21
-20 9 0 16 -6 16 -14 0 -19 26 -27 39 -12 13 15 4 26 -21 26 -10 0 -18 7 -18
16 0 9 -9 18 -20 21 -10 3 -22 14 -25 24 -7 22 -35 26 -35 5z"/>
<path d="M975 1500 c-4 -6 -3 -16 3 -22 6 -6 12 -6 17 2 4 6 3 16 -3 22 -6 6
-12 6 -17 -2z"/>
<path d="M1103 1503 c-18 -6 -16 -23 1 -23 17 0 30 16 19 23 -5 2 -14 2 -20 0z"/>
<path d="M1180 1496 c0 -17 14 -29 23 -20 8 8 -3 34 -14 34 -5 0 -9 -6 -9 -14z"/>
<path d="M1307 1504 c-8 -8 3 -34 14 -34 11 0 12 27 0 34 -4 3 -11 3 -14 0z"/>
<path d="M1475 1500 c-4 -6 -3 -16 3 -22 6 -6 12 -6 17 2 4 6 3 16 -3 22 -6 6
-12 6 -17 -2z"/>
<path d="M1767 1503 c-3 -5 -2 -15 2 -22 7 -10 10 -10 16 -1 4 6 3 16 -3 22
-5 5 -12 6 -15 1z"/>
<path d="M1890 1496 c0 -17 14 -29 23 -20 8 8 -3 34 -14 34 -5 0 -9 -6 -9 -14z"/>
<path d="M2180 1498 c1 -20 57 -71 65 -59 3 6 -7 25 -24 41 -32 33 -41 37 -41
18z"/>
<path d="M2640 1496 c0 -17 14 -29 23 -20 8 8 -3 34 -14 34 -5 0 -9 -6 -9 -14z"/>
<path d="M1640 1451 c0 -11 4 -21 9 -21 18 0 21 18 6 30 -13 10 -15 9 -15 -9z"/>
<path d="M1953 1435 c-41 -43 -24 -58 19 -16 20 20 28 35 22 41 -5 5 -21 -4
-41 -25z"/>
<path d="M2307 1464 c-8 -8 3 -34 14 -34 11 0 12 27 0 34 -4 3 -11 3 -14 0z"/>
<path d="M2927 1464 c-18 -18 -6 -62 25 -88 17 -14 35 -26 40 -26 14 0 9 22
-8 34 -9 7 -19 27 -23 46 -6 33 -21 47 -34 34z"/>
<path d="M1380 1451 c0 -11 26 -22 34 -14 3 3 3 10 0 14 -7 12 -34 11 -34 0z"/>
<path d="M2050 1451 c0 -18 18 -21 30 -6 10 13 9 15 -9 15 -11 0 -21 -4 -21
-9z"/>
<path d="M2715 1450 c-3 -5 3 -10 14 -10 12 0 21 5 21 10 0 6 -6 10 -14 10 -8
0 -18 -4 -21 -10z"/>
<path d="M3597 1454 c-4 -4 -4 -10 -1 -15 6 -10 34 0 34 12 0 10 -24 12 -33 3z"/>
<path d="M767 1416 c-3 -8 -2 -18 3 -21 13 -8 24 15 12 27 -6 6 -11 4 -15 -6z"/>
<path d="M1055 1420 c-7 -12 2 -30 16 -30 12 0 12 27 0 35 -5 3 -12 1 -16 -5z"/>
<path d="M1515 1420 c-4 -6 -2 -17 4 -23 15 -15 25 -2 13 19 -7 12 -11 13 -17
4z"/>
<path d="M1724 1416 c-8 -22 3 -33 18 -18 9 9 9 15 0 24 -9 9 -13 7 -18 -6z"/>
<path d="M1805 1420 c-9 -15 52 -77 65 -64 6 6 -3 21 -25 42 -21 21 -36 29
-40 22z"/>
<path d="M2144 1416 c-8 -22 3 -33 18 -18 9 9 9 15 0 24 -9 9 -13 7 -18 -6z"/>
<path d="M2557 1424 c-8 -8 3 -34 14 -34 11 0 12 27 0 34 -4 3 -11 3 -14 0z"/>
<path d="M2645 1417 c-4 -10 -5 -21 -1 -24 10 -10 18 4 13 24 -4 17 -4 17 -12
0z"/>
<path d="M1216 1411 c-3 -5 3 -11 14 -14 13 -3 20 0 20 9 0 15 -26 19 -34 5z"/>
<path d="M2387 1414 c-4 -4 -4 -10 -1 -15 6 -10 34 0 34 12 0 10 -24 12 -33 3z"/>
<path d="M2466 1411 c-3 -5 3 -11 14 -14 13 -3 20 0 20 9 0 15 -26 19 -34 5z"/>
<path d="M1437 1383 c-12 -12 -7 -33 8 -33 17 0 19 9 7 28 -5 7 -11 9 -15 5z"/>
<path d="M3140 1370 c0 -11 7 -20 15 -20 13 0 14 4 5 20 -6 11 -13 20 -15 20
-3 0 -5 -9 -5 -20z"/>
<path d="M3476 1374 c-8 -22 1 -31 16 -16 9 9 9 15 1 23 -7 7 -12 5 -17 -7z"/>
<path d="M847 1374 c-4 -4 -4 -10 -1 -15 6 -10 34 0 34 12 0 10 -24 12 -33 3z"/>
<path d="M930 1366 c0 -9 7 -16 16 -16 17 0 14 22 -4 28 -7 2 -12 -3 -12 -12z"/>
<path d="M1300 1371 c0 -14 18 -23 31 -15 8 4 7 9 -2 15 -18 11 -29 11 -29 0z"/>
<path d="M1635 1371 c-7 -12 12 -24 25 -16 11 7 4 25 -10 25 -5 0 -11 -4 -15
-9z"/>
<path d="M2055 1370 c-3 -5 -3 -15 1 -21 6 -11 23 6 24 24 0 10 -18 9 -25 -3z"/>
<path d="M2300 1372 c0 -14 11 -21 26 -15 8 3 11 9 8 14 -7 11 -34 12 -34 1z"/>
<path d="M2715 1371 c-3 -5 -1 -12 5 -16 12 -7 30 2 30 16 0 12 -27 12 -35 0z"/>
<path d="M3347 1374 c-4 -4 -4 -10 -1 -15 6 -10 34 0 34 12 0 10 -24 12 -33 3z"/>
<path d="M2640 1330 c0 -11 7 -20 15 -20 13 0 14 4 5 20 -6 11 -13 20 -15 20
-3 0 -5 -9 -5 -20z"/>
<path d="M1135 1329 c-4 -6 -5 -12 -2 -15 7 -7 37 7 37 17 0 13 -27 11 -35 -2z"/>
<path d="M1550 1331 c0 -14 18 -23 31 -15 8 4 7 9 -2 15 -18 11 -29 11 -29 0z"/>
<path d="M1761 1331 c-8 -5 -9 -11 -3 -15 14 -8 43 4 36 15 -7 11 -15 11 -33
0z"/>
<path d="M1970 1329 c0 -14 47 -59 62 -59 5 0 7 7 4 16 -3 9 -6 18 -6 20 0 2
-7 4 -15 4 -8 0 -15 7 -15 15 0 8 -7 15 -15 15 -8 0 -15 -5 -15 -11z"/>
<path d="M2141 1331 c-9 -6 -10 -11 -2 -15 13 -8 31 1 31 15 0 11 -11 11 -29
0z"/>
<path d="M2220 1329 c0 -15 42 -59 58 -59 20 0 14 28 -8 35 -11 3 -20 13 -20
21 0 8 -7 14 -15 14 -8 0 -15 -5 -15 -11z"/>
<path d="M2390 1325 c0 -8 5 -15 10 -15 6 0 10 7 10 15 0 8 -4 15 -10 15 -5 0
-10 -7 -10 -15z"/>
<path d="M2471 1331 c-9 -6 -10 -11 -2 -15 13 -8 31 1 31 15 0 11 -11 11 -29
0z"/>
<path d="M2551 1331 c-8 -5 -9 -11 -3 -15 14 -8 43 4 36 15 -7 11 -15 11 -33
0z"/>
<path d="M3220 1329 c0 -15 42 -59 58 -59 19 0 14 18 -8 32 -11 7 -20 18 -20
25 0 7 -7 13 -15 13 -8 0 -15 -5 -15 -11z"/>
<path d="M1057 1294 c-9 -9 4 -35 14 -28 5 3 9 12 9 20 0 14 -12 19 -23 8z"/>
<path d="M2807 1286 c-6 -16 2 -28 14 -20 12 7 11 34 0 34 -5 0 -11 -6 -14
-14z"/>
<path d="M3057 1286 c-6 -16 2 -28 14 -20 12 7 11 34 0 34 -5 0 -11 -6 -14
-14z"/>
<path d="M3141 1291 c-10 -7 -10 -10 -1 -16 6 -4 16 -3 22 3 13 13 -4 23 -21
13z"/>
<path d="M1180 1246 c0 -17 14 -29 23 -20 8 8 -3 34 -14 34 -5 0 -9 -6 -9 -14z"/>
<path d="M1260 1253 c0 -5 4 -15 10 -23 11 -18 25 -7 17 15 -6 15 -27 21 -27
8z"/>
<path d="M1346 1252 c-2 -4 10 -22 29 -40 18 -18 36 -29 39 -23 3 5 -8 23 -25
40 -33 34 -35 35 -43 23z"/>
<path d="M1475 1250 c-4 -6 -3 -16 3 -22 6 -6 12 -6 17 2 4 6 3 16 -3 22 -6 6
-12 6 -17 -2z"/>
<path d="M1680 1246 c0 -17 14 -29 23 -20 8 8 -3 34 -14 34 -5 0 -9 -6 -9 -14z"/>
<path d="M1847 1246 c-6 -16 2 -28 14 -20 12 7 11 34 0 34 -5 0 -11 -6 -14
-14z"/>
<path d="M2725 1250 c-4 -6 -3 -16 3 -22 6 -6 12 -6 17 2 4 6 3 16 -3 22 -6 6
-12 6 -17 -2z"/>
<path d="M2886 1251 c-3 -5 1 -14 9 -21 13 -10 15 -9 15 9 0 21 -14 28 -24 12z"/>
<path d="M2975 1250 c-3 -5 -3 -15 1 -21 6 -11 23 6 24 24 0 10 -18 9 -25 -3z"/>
<path d="M1597 1214 c-8 -8 3 -34 14 -34 5 0 9 9 9 20 0 19 -11 26 -23 14z"/>
<path d="M2590 1200 c0 -5 9 -10 20 -10 11 0 20 5 20 10 0 6 -9 10 -20 10 -11
0 -20 -4 -20 -10z"/>
<path d="M1516 1164 c-8 -22 1 -31 16 -16 9 9 9 15 1 23 -7 7 -12 5 -17 -7z"/>
<path d="M2436 1173 c-9 -9 -7 -33 3 -33 12 0 22 28 12 34 -5 3 -11 3 -15 -1z"/>
<path d="M2305 1159 c-10 -14 -1 -21 19 -13 9 3 13 10 10 15 -7 12 -21 11 -29
-2z"/>
<path d="M2760 1162 c0 -14 11 -21 26 -15 8 3 11 9 8 14 -7 11 -34 12 -34 1z"/>
<path d="M1760 1121 c0 -14 18 -23 31 -15 8 4 7 9 -2 15 -18 11 -29 11 -29 0z"/>
<path d="M2135 1120 c-3 -6 1 -13 10 -16 19 -8 30 0 20 15 -8 14 -22 14 -30 1z"/>
<path d="M2557 1084 c-9 -9 4 -35 14 -28 5 3 9 12 9 20 0 14 -12 19 -23 8z"/>
<path d="M2680 1076 c0 -8 4 -17 9 -20 10 -7 23 19 14 28 -11 11 -23 6 -23 -8z"/>
<path d="M1970 1043 c1 -18 18 -35 24 -24 4 6 4 16 1 21 -7 12 -25 13 -25 3z"/>
<path d="M2640 996 c0 -8 5 -18 10 -21 6 -3 10 3 10 14 0 12 -4 21 -10 21 -5
0 -10 -6 -10 -14z"/>
<path d="M2347 964 c-8 -8 3 -34 14 -34 11 0 12 27 0 34 -4 3 -11 3 -14 0z"/>
<path d="M2186 923 c-9 -9 -7 -33 3 -33 12 0 22 28 12 34 -5 3 -11 3 -15 -1z"/>
<path d="M2515 920 c-7 -12 2 -30 16 -30 12 0 12 27 0 35 -5 3 -12 1 -16 -5z"/>
<path d="M1890 870 c0 -11 7 -20 15 -20 13 0 14 4 5 20 -6 11 -13 20 -15 20
-3 0 -5 -9 -5 -20z"/>
<path d="M2557 834 c-9 -9 4 -35 14 -28 5 3 9 12 9 20 0 14 -12 19 -23 8z"/>
<path d="M2057 786 c-6 -16 2 -28 14 -20 12 7 11 34 0 34 -5 0 -11 -6 -14 -14z"/>
<path d="M2433 785 c-8 -22 6 -33 17 -15 13 20 12 30 0 30 -6 0 -13 -7 -17
-15z"/>
<path d="M2260 746 c0 -15 18 -31 26 -23 7 7 -7 37 -17 37 -5 0 -9 -6 -9 -14z"/>
<path d="M2394 667 c-8 -21 2 -35 16 -21 5 5 6 15 0 24 -8 12 -10 12 -16 -3z"/>
<path d="M2057 548 c-3 -8 -2 -21 3 -27 11 -19 23 5 12 25 -8 14 -10 14 -15 2z"/>
<path d="M2186 543 c-9 -9 -7 -33 3 -33 12 0 22 28 12 34 -5 3 -11 3 -15 -1z"/>
<path d="M2350 529 c0 -18 2 -19 15 -9 15 12 12 30 -6 30 -5 0 -9 -10 -9 -21z"/>
<path d="M2307 424 c-8 -8 3 -34 14 -34 11 0 12 27 0 34 -4 3 -11 3 -14 0z"/>
<path d="M2180 286 c0 -8 4 -17 9 -20 10 -7 23 19 14 28 -11 11 -23 6 -23 -8z"/>
<path d="M2300 293 c1 -18 18 -35 24 -24 4 6 4 16 1 21 -7 12 -25 13 -25 3z"/>
<path d="M2225 170 c-4 -6 -3 -16 3 -22 13 -13 23 4 13 21 -7 10 -10 10 -16 1z"/>
</g>
</svg>
